<svg id="Layer_1" data-name="Layer 1" xmlns="http://www.w3.org/2000/svg" xmlns:xlink="http://www.w3.org/1999/xlink" viewBox="0 0 1777.25 1855.08"><defs><style>.cls-1{fill:url(#Gradiente_sem_nome_17);}.cls-2{fill:#fff;}.cls-3{fill:url(#Gradiente_sem_nome_26);}.cls-4{fill:url(#Gradiente_sem_nome_26-2);}.cls-5{fill:url(#Gradiente_sem_nome_26-3);}.cls-6{fill:none;}.cls-7{fill:#eff2f9;}.cls-8{fill:url(#Gradiente_sem_nome_44);}.cls-9{fill:#6bb7dd;}.cls-10{fill:url(#Gradiente_sem_nome_26-24);}</style><linearGradient id="Gradiente_sem_nome_17" x1="650.58" y1="1885.69" x2="2787.74" y2="1885.69" gradientTransform="matrix(1.14, 0.01, -0.02, 1.5, -718.89, -957.43)" gradientUnits="userSpaceOnUse"><stop offset="0" stop-color="#cce0f4"/><stop offset="0.11" stop-color="#c3def5"/><stop offset="0.3" stop-color="#a9d7f7"/><stop offset="0.49" stop-color="#87cefa"/><stop offset="0.71" stop-color="#00a1ff"/><stop offset="0.82" stop-color="#0da1f4"/><stop offset="0.99" stop-color="#2da2da"/><stop offset="1" stop-color="#167eb8"/><stop offset="1" stop-color="#005b97"/></linearGradient><linearGradient id="Gradiente_sem_nome_26" x1="1419.82" y1="-858.93" x2="1440.17" y2="-858.93" gradientTransform="translate(-200.53 1458.04)" gradientUnits="userSpaceOnUse"><stop offset="0" stop-color="#cce0f4"/><stop offset="0" stop-color="#cee1eb"/><stop offset="0" stop-color="#d3e5d1"/><stop offset="0" stop-color="#dceaa8"/><stop offset="0" stop-color="#e8f16f"/><stop offset="0" stop-color="#f1f742"/><stop offset="0.04" stop-color="#f4f935"/><stop offset="0.12" stop-color="#fbfd12"/><stop offset="0.16" stop-color="#ff0"/><stop offset="0.99" stop-color="#2da2da"/><stop offset="1" stop-color="#167eb8"/><stop offset="1" stop-color="#005b97"/></linearGradient><linearGradient id="Gradiente_sem_nome_26-2" x1="1088.29" y1="531.91" x2="1089.28" y2="531.91" gradientTransform="matrix(1, 0, 0, 1, 0, 0)" xlink:href="#Gradiente_sem_nome_26"/><linearGradient id="Gradiente_sem_nome_26-3" x1="1120.24" y1="565.28" x2="1120.51" y2="565.28" gradientTransform="matrix(1, 0, 0, 1, 0, 0)" xlink:href="#Gradiente_sem_nome_26"/><linearGradient id="Gradiente_sem_nome_44" x1="741.43" y1="416.5" x2="892.97" y2="416.5" gradientUnits="userSpaceOnUse"><stop offset="0" stop-color="#cce0f4"/><stop offset="0" stop-color="#cee1eb"/><stop offset="0" stop-color="#d3e4d1"/><stop offset="0" stop-color="#dceaa7"/><stop offset="0" stop-color="#e8f16e"/><stop offset="0" stop-color="#f7fa25"/><stop offset="0" stop-color="#ff0"/><stop offset="0.43" stop-color="#ff0"/><stop offset="0.99" stop-color="#2da2da"/><stop offset="1" stop-color="#097ec4"/><stop offset="1" stop-color="#0075be"/><stop offset="1" stop-color="#005b97"/></linearGradient><linearGradient id="Gradiente_sem_nome_26-24" x1="499.75" y1="515.77" x2="1257" y2="515.77" gradientTransform="matrix(1, 0, 0, 1, 0, 0)" xlink:href="#Gradiente_sem_nome_26"/></defs><title>peixesvg</title><path class="cls-1" d="M2271.51,1901.65c0,1.43-.07,2.87-.1,4.31,1.88-1.43,3.74-2.87,5.59-4.3Z" transform="translate(-499.75 -50.89)"/><circle class="cls-2" cx="660.6" cy="353.01" r="49.19"/><ellipse class="cls-2" cx="597.78" cy="254" rx="74.95" ry="67.4"/><ellipse class="cls-3" cx="1229.47" cy="599.11" rx="10.17" ry="11.79" transform="translate(-581.58 936.86) rotate(-42.49)"/><path class="cls-4" d="M1089.28,532.56h0l-1-1.29Z" transform="translate(-499.75 -50.89)"/><path class="cls-5" d="M1120.51,565.41l-.27-.25.26.05Z" transform="translate(-499.75 -50.89)"/><path class="cls-6" d="M1085.25,405.09l-.77.47-.09-1.77Z" transform="translate(-499.75 -50.89)"/><path class="cls-6" d="M1189.21,419.79a21.88,21.88,0,0,1-5,5.68A35,35,0,0,0,1189.21,419.79Z" transform="translate(-499.75 -50.89)"/><path class="cls-6" d="M1085.25,405.09l-.77.47-.09-1.77Z" transform="translate(-499.75 -50.89)"/><path class="cls-6" d="M1189.21,419.79a21.88,21.88,0,0,1-5,5.68A35,35,0,0,0,1189.21,419.79Z" transform="translate(-499.75 -50.89)"/><path class="cls-6" d="M1210,322.71c-.57-1.09-1.15-2.18-1.73-3.26C1208.83,320.53,1209.41,321.62,1210,322.71Z" transform="translate(-499.75 -50.89)"/><path class="cls-6" d="M1238.38,395.91c-.3-1.14-.6-2.28-.91-3.41C1237.78,393.64,1238.08,394.77,1238.38,395.91Z" transform="translate(-499.75 -50.89)"/><path class="cls-6" d="M1230.93,515.56c-.14.28-.28.55-.43.81l0,0C1230.63,516.09,1230.78,515.83,1230.93,515.56Z" transform="translate(-499.75 -50.89)"/><path class="cls-6" d="M1085.25,405.09l-.77.47-.09-1.77Z" transform="translate(-499.75 -50.89)"/><path class="cls-6" d="M1189.21,419.79a21.88,21.88,0,0,1-5,5.68A35,35,0,0,0,1189.21,419.79Z" transform="translate(-499.75 -50.89)"/><path class="cls-6" d="M1210,322.71c-.57-1.09-1.15-2.18-1.73-3.26C1208.83,320.53,1209.41,321.62,1210,322.71Z" transform="translate(-499.75 -50.89)"/><path class="cls-6" d="M1238.38,395.91c-.3-1.14-.6-2.28-.91-3.41C1237.78,393.64,1238.08,394.77,1238.38,395.91Z" transform="translate(-499.75 -50.89)"/><path class="cls-6" d="M1230.93,515.56c-.14.28-.28.55-.43.81l0,0C1230.63,516.09,1230.78,515.83,1230.93,515.56Z" transform="translate(-499.75 -50.89)"/><path class="cls-4" d="M1089.28,532.56h0l-1-1.29Z" transform="translate(-499.75 -50.89)"/><path class="cls-6" d="M1085.25,405.09l-.77.47-.09-1.77Z" transform="translate(-499.75 -50.89)"/><path class="cls-6" d="M1189.21,419.79a21.88,21.88,0,0,1-5,5.68A35,35,0,0,0,1189.21,419.79Z" transform="translate(-499.75 -50.89)"/><path class="cls-6" d="M500.34,468.21l-.18,3.33Z" transform="translate(-499.75 -50.89)"/><path class="cls-6" d="M622.07,486.63c-.4.84-.79,1.68-1.18,2.52C621.28,488.31,621.67,487.46,622.07,486.63Z" transform="translate(-499.75 -50.89)"/><path class="cls-6" d="M900.35,292.66c-.51.19-1,.37-1.54.57l-.54-.84Z" transform="translate(-499.75 -50.89)"/><path class="cls-5" d="M1120.51,565.41l-.27-.25.26.05Z" transform="translate(-499.75 -50.89)"/><path class="cls-6" d="M1085.25,405.09l-.77.47-.09-1.77Z" transform="translate(-499.75 -50.89)"/><path class="cls-6" d="M1189.21,419.79a21.88,21.88,0,0,1-5,5.68A35,35,0,0,0,1189.21,419.79Z" transform="translate(-499.75 -50.89)"/><path class="cls-6" d="M501.4,521.76c-.13-1.31-.25-2.62-.37-3.93C501.15,519.14,501.27,520.45,501.4,521.76Z" transform="translate(-499.75 -50.89)"/><path class="cls-6" d="M510.74,574c-.33-1.28-.66-2.56-1-3.84C510.08,571.48,510.41,572.76,510.74,574Z" transform="translate(-499.75 -50.89)"/><path class="cls-6" d="M525.81,618.84c-.51-1.21-1-2.42-1.49-3.64C524.81,616.42,525.31,617.63,525.81,618.84Z" transform="translate(-499.75 -50.89)"/><path class="cls-6" d="M527.06,354.78c-.48,1.13-.95,2.25-1.42,3.38C526.11,357,526.58,355.9,527.06,354.78Z" transform="translate(-499.75 -50.89)"/><path class="cls-6" d="M528.52,351.4c-.49,1.13-1,2.25-1.46,3.38C527.54,353.65,528,352.53,528.52,351.4Z" transform="translate(-499.75 -50.89)"/><path class="cls-6" d="M534.69,638.55c-.57-1.18-1.14-2.36-1.7-3.54C533.55,636.19,534.12,637.37,534.69,638.55Z" transform="translate(-499.75 -50.89)"/><path class="cls-6" d="M536.4,642l-1.71-3.45Z" transform="translate(-499.75 -50.89)"/><path class="cls-6" d="M541,650.8c-.62-1.16-1.23-2.31-1.84-3.48C539.74,648.48,540.35,649.64,541,650.8Z" transform="translate(-499.75 -50.89)"/><path class="cls-6" d="M940.63,541.5c-1.35.22-2.69.42-4,.62C937.93,541.92,939.28,541.72,940.63,541.5Z" transform="translate(-499.75 -50.89)"/><path class="cls-6" d="M900.35,292.66c-.51.19-1,.37-1.54.57l-.54-.84Z" transform="translate(-499.75 -50.89)"/><path class="cls-4" d="M1089.28,532.56h0l-1-1.29Z" transform="translate(-499.75 -50.89)"/><path class="cls-5" d="M1120.51,565.41l-.27-.25.26.05Z" transform="translate(-499.75 -50.89)"/><path class="cls-6" d="M1085.25,405.09l-.77.47-.09-1.77Z" transform="translate(-499.75 -50.89)"/><path class="cls-6" d="M1189.21,419.79a21.88,21.88,0,0,1-5,5.68A35,35,0,0,0,1189.21,419.79Z" transform="translate(-499.75 -50.89)"/><path class="cls-6" d="M940.63,541.5c-1.35.22-2.69.42-4,.62C937.93,541.92,939.28,541.72,940.63,541.5Z" transform="translate(-499.75 -50.89)"/><path class="cls-4" d="M1089.28,532.56h0l-1-1.29Z" transform="translate(-499.75 -50.89)"/><path class="cls-5" d="M1120.51,565.41l-.27-.25.26.05Z" transform="translate(-499.75 -50.89)"/><path class="cls-6" d="M1085.25,405.09l-.77.47-.09-1.77Z" transform="translate(-499.75 -50.89)"/><path class="cls-6" d="M940.63,541.5c-1.35.22-2.69.42-4,.62C937.93,541.92,939.28,541.72,940.63,541.5Z" transform="translate(-499.75 -50.89)"/><path class="cls-6" d="M900.35,292.66c-.51.19-1,.37-1.54.57l-.54-.84Z" transform="translate(-499.75 -50.89)"/><path class="cls-4" d="M1089.28,532.56h0l-1-1.29Z" transform="translate(-499.75 -50.89)"/><path class="cls-6" d="M900.35,292.66c-.51.19-1,.37-1.54.57l-.54-.84Z" transform="translate(-499.75 -50.89)"/><path class="cls-6" d="M940.63,541.5c-1.35.22-2.69.42-4,.62C937.93,541.92,939.28,541.72,940.63,541.5Z" transform="translate(-499.75 -50.89)"/><path class="cls-6" d="M900.35,292.66c-.51.19-1,.37-1.54.57l-.54-.84Z" transform="translate(-499.75 -50.89)"/><path class="cls-6" d="M1085.25,405.09l-.77.47-.09-1.77Z" transform="translate(-499.75 -50.89)"/><path class="cls-5" d="M1120.51,565.41l-.27-.25.26.05Z" transform="translate(-499.75 -50.89)"/><path class="cls-6" d="M1085.25,405.09l-.77.47-.09-1.77Z" transform="translate(-499.75 -50.89)"/><path class="cls-6" d="M1189.21,419.79a21.88,21.88,0,0,1-5,5.68A35,35,0,0,0,1189.21,419.79Z" transform="translate(-499.75 -50.89)"/><path class="cls-5" d="M1120.51,565.41l-.27-.25.26.05Z" transform="translate(-499.75 -50.89)"/><path class="cls-6" d="M1085.25,405.09l-.77.47-.09-1.77Z" transform="translate(-499.75 -50.89)"/><path class="cls-6" d="M1189.21,419.79a21.88,21.88,0,0,1-5,5.68A35,35,0,0,0,1189.21,419.79Z" transform="translate(-499.75 -50.89)"/><path class="cls-6" d="M900.35,292.66c-.51.19-1,.37-1.54.57l-.54-.84Z" transform="translate(-499.75 -50.89)"/><path class="cls-6" d="M940.63,541.5c-1.35.22-2.69.42-4,.62C937.93,541.92,939.28,541.72,940.63,541.5Z" transform="translate(-499.75 -50.89)"/><path class="cls-4" d="M1089.28,532.56h0l-1-1.29Z" transform="translate(-499.75 -50.89)"/><path class="cls-5" d="M1120.51,565.41l-.27-.25.26.05Z" transform="translate(-499.75 -50.89)"/><path class="cls-6" d="M940.63,541.5c-1.35.22-2.69.42-4,.62C937.93,541.92,939.28,541.72,940.63,541.5Z" transform="translate(-499.75 -50.89)"/><path class="cls-6" d="M947.82,540.24h0l-1,.17Z" transform="translate(-499.75 -50.89)"/><path class="cls-5" d="M1120.51,565.41l-.27-.25.26.05Z" transform="translate(-499.75 -50.89)"/><path class="cls-6" d="M1085.25,405.09l-.77.47-.09-1.77Z" transform="translate(-499.75 -50.89)"/><path class="cls-6" d="M1189.21,419.79a21.88,21.88,0,0,1-5,5.68A35,35,0,0,0,1189.21,419.79Z" transform="translate(-499.75 -50.89)"/><path class="cls-6" d="M1210,322.71c-.57-1.09-1.15-2.18-1.73-3.26C1208.83,320.53,1209.41,321.62,1210,322.71Z" transform="translate(-499.75 -50.89)"/><path class="cls-6" d="M1238.38,395.91c-.3-1.14-.6-2.28-.91-3.41C1237.78,393.64,1238.08,394.77,1238.38,395.91Z" transform="translate(-499.75 -50.89)"/><path class="cls-6" d="M1085.25,405.09l-.77.47-.09-1.77Z" transform="translate(-499.75 -50.89)"/><path class="cls-6" d="M1189.21,419.79a21.88,21.88,0,0,1-5,5.68A35,35,0,0,0,1189.21,419.79Z" transform="translate(-499.75 -50.89)"/><path class="cls-6" d="M1210,322.71c-.57-1.09-1.15-2.18-1.73-3.26C1208.83,320.53,1209.41,321.62,1210,322.71Z" transform="translate(-499.75 -50.89)"/><path class="cls-6" d="M1238.38,395.91c-.3-1.14-.6-2.28-.91-3.41C1237.78,393.64,1238.08,394.77,1238.38,395.91Z" transform="translate(-499.75 -50.89)"/><path class="cls-5" d="M1120.51,565.41l-.27-.25.26.05Z" transform="translate(-499.75 -50.89)"/><path class="cls-5" d="M1120.51,565.41l-.27-.25.26.05Z" transform="translate(-499.75 -50.89)"/><path class="cls-6" d="M1189.21,419.79a21.88,21.88,0,0,1-5,5.68A35,35,0,0,0,1189.21,419.79Z" transform="translate(-499.75 -50.89)"/><path class="cls-5" d="M1120.51,565.41l-.27-.25.26.05Z" transform="translate(-499.75 -50.89)"/><path class="cls-6" d="M1085.25,405.09l-.77.47-.09-1.77Z" transform="translate(-499.75 -50.89)"/><path class="cls-6" d="M1189.21,419.79a21.88,21.88,0,0,1-5,5.68A35,35,0,0,0,1189.21,419.79Z" transform="translate(-499.75 -50.89)"/><path class="cls-6" d="M1210,322.71c-.57-1.09-1.15-2.18-1.73-3.26C1208.83,320.53,1209.41,321.62,1210,322.71Z" transform="translate(-499.75 -50.89)"/><path class="cls-6" d="M1238.38,395.91c-.3-1.14-.6-2.28-.91-3.41C1237.78,393.64,1238.08,394.77,1238.38,395.91Z" transform="translate(-499.75 -50.89)"/><path class="cls-6" d="M500.34,468.21l-.18,3.33Z" transform="translate(-499.75 -50.89)"/><path class="cls-6" d="M501.4,521.76c-.13-1.31-.25-2.62-.37-3.93C501.15,519.14,501.27,520.45,501.4,521.76Z" transform="translate(-499.75 -50.89)"/><path class="cls-6" d="M510.74,574c-.33-1.28-.66-2.56-1-3.84C510.08,571.48,510.41,572.76,510.74,574Z" transform="translate(-499.75 -50.89)"/><path class="cls-6" d="M525.81,618.84c-.51-1.21-1-2.42-1.49-3.64C524.81,616.42,525.31,617.63,525.81,618.84Z" transform="translate(-499.75 -50.89)"/><path class="cls-6" d="M527.06,354.78c-.48,1.13-.95,2.25-1.42,3.38C526.11,357,526.58,355.9,527.06,354.78Z" transform="translate(-499.75 -50.89)"/><path class="cls-6" d="M528.52,351.4c-.49,1.13-1,2.25-1.46,3.38C527.54,353.65,528,352.53,528.52,351.4Z" transform="translate(-499.75 -50.89)"/><path class="cls-6" d="M534.69,638.55c-.57-1.18-1.14-2.36-1.7-3.54C533.55,636.19,534.12,637.37,534.69,638.55Z" transform="translate(-499.75 -50.89)"/><path class="cls-6" d="M536.4,642l-1.71-3.45Z" transform="translate(-499.75 -50.89)"/><path class="cls-6" d="M541,650.8c-.62-1.16-1.23-2.31-1.84-3.48C539.74,648.48,540.35,649.64,541,650.8Z" transform="translate(-499.75 -50.89)"/><path class="cls-6" d="M622.07,486.63c-.4.84-.79,1.68-1.18,2.52C621.28,488.31,621.67,487.46,622.07,486.63Z" transform="translate(-499.75 -50.89)"/><path class="cls-6" d="M940.63,541.5c-1.35.22-2.69.42-4,.62C937.93,541.92,939.28,541.72,940.63,541.5Z" transform="translate(-499.75 -50.89)"/><path class="cls-6" d="M947.82,540.24h0l-1,.17Z" transform="translate(-499.75 -50.89)"/><path class="cls-6" d="M500.34,468.21l-.18,3.33Z" transform="translate(-499.75 -50.89)"/><path class="cls-6" d="M501.4,521.76c-.13-1.31-.25-2.62-.37-3.93C501.15,519.14,501.27,520.45,501.4,521.76Z" transform="translate(-499.75 -50.89)"/><path class="cls-6" d="M500.34,468.21l-.18,3.33Z" transform="translate(-499.75 -50.89)"/><path class="cls-6" d="M500.34,468.21l-.18,3.33Z" transform="translate(-499.75 -50.89)"/><path class="cls-6" d="M501.4,521.76c-.13-1.31-.25-2.62-.37-3.93C501.15,519.14,501.27,520.45,501.4,521.76Z" transform="translate(-499.75 -50.89)"/><path class="cls-6" d="M622.07,486.63c-.4.84-.79,1.68-1.18,2.52C621.28,488.31,621.67,487.46,622.07,486.63Z" transform="translate(-499.75 -50.89)"/><path class="cls-4" d="M1089.28,532.56h0l-1-1.29Z" transform="translate(-499.75 -50.89)"/><path class="cls-6" d="M1189.21,419.79a21.88,21.88,0,0,1-5,5.68A35,35,0,0,0,1189.21,419.79Z" transform="translate(-499.75 -50.89)"/><path class="cls-6" d="M1230.93,515.56c-.14.28-.28.55-.43.81l0,0C1230.63,516.09,1230.78,515.83,1230.93,515.56Z" transform="translate(-499.75 -50.89)"/><path class="cls-6" d="M622.07,486.63c-.4.84-.79,1.68-1.18,2.52C621.28,488.31,621.67,487.46,622.07,486.63Z" transform="translate(-499.75 -50.89)"/><path class="cls-6" d="M940.63,541.5c-1.35.22-2.69.42-4,.62C937.93,541.92,939.28,541.72,940.63,541.5Z" transform="translate(-499.75 -50.89)"/><path class="cls-6" d="M947.82,540.24h0l-1,.17Z" transform="translate(-499.75 -50.89)"/><path class="cls-6" d="M900.35,292.66c-.51.19-1,.37-1.54.57l-.54-.84Z" transform="translate(-499.75 -50.89)"/><path class="cls-4" d="M1089.28,532.56h0l-1-1.29Z" transform="translate(-499.75 -50.89)"/><path class="cls-5" d="M1120.51,565.41l-.27-.25.26.05Z" transform="translate(-499.75 -50.89)"/><path class="cls-6" d="M1085.25,405.09l-.77.47-.09-1.77Z" transform="translate(-499.75 -50.89)"/><path class="cls-6" d="M1189.21,419.79a21.88,21.88,0,0,1-5,5.68A35,35,0,0,0,1189.21,419.79Z" transform="translate(-499.75 -50.89)"/><path class="cls-6" d="M1210,322.71c-.57-1.09-1.15-2.18-1.73-3.26C1208.83,320.53,1209.41,321.62,1210,322.71Z" transform="translate(-499.75 -50.89)"/><path class="cls-6" d="M1238.38,395.91c-.3-1.14-.6-2.28-.91-3.41C1237.78,393.64,1238.08,394.77,1238.38,395.91Z" transform="translate(-499.75 -50.89)"/><path class="cls-6" d="M1230.93,515.56c-.14.28-.28.55-.43.81l0,0C1230.63,516.09,1230.78,515.83,1230.93,515.56Z" transform="translate(-499.75 -50.89)"/><path class="cls-7" d="M987.53,319.39q-6,.63-12,1.52a281.63,281.63,0,0,0-54.13,13.55A273.74,273.74,0,0,0,893,346.54h0a292.55,292.55,0,0,0-85.48,3.27,279.87,279.87,0,0,0-42.9,11.64c-38.12,13.69-71.77,35.24-98.44,62.4q-2.16,2.19-4.24,4.42l-.8.86-.56.61c-.62.67-1.23,1.35-1.84,2l-.82.91c-.36.41-.72.81-1.07,1.22l-.72.82-1.41,1.64-.53.63-.86,1-1.38,1.66c-.94,1.14-1.86,2.29-2.78,3.45l-1.2,1.54-.08.1-.64.83c-.22.28-.44.56-.65.85-.5.65-1,1.3-1.48,2l-.46.62-.75,1-.92,1.27c-.29.4-.57.8-.86,1.19q-1.38,2-2.73,3.93l-.8,1.18-.13.2-.81,1.21c-.59.89-1.17,1.79-1.74,2.68l-.61.95-.35.55-.1.17c-.19.3-.38.6-.56.9s-.47.75-.7,1.12l-.93,1.54-.69,1.15a1.74,1.74,0,0,0-.11.18c-.82,1.38-1.62,2.76-2.41,4.16l-.59,1c-.24.45-.49.89-.73,1.33l-.42.77-.58,1.06-.56,1.06-.56,1.06-.55,1.06c-.35.67-.69,1.35-1,2l-.59,1.19c-.18.36-.36.72-.53,1.08l-.53,1.08-.69,1.46c-.4.83-.79,1.68-1.18,2.52l-1.14,2.54-.48,1.1-.48,1.1c-.15.37-.31.74-.47,1.11-.93,2.21-1.83,4.43-2.68,6.68-.14.35-.28.71-.41,1.06,0,0,0,.08,0,.11l-.39,1c-.08.2-.15.39-.22.59s-.21.59-.32.88q-1.5,4.14-2.83,8.35c-.08.26-.17.52-.25.78s-.21.69-.31,1c-.32,1-.62,2.05-.92,3.09l-.3,1c-.19.69-.39,1.38-.57,2.07-.1.34-.19.69-.28,1s-.17.63-.26.94c-.31,1.2-.61,2.4-.91,3.61-.06.26-.12.52-.19.78s-.14.62-.22.93l-.21.89-.27,1.21c-.07.33-.15.66-.22,1Q605.67,536,605,540h0c0,.25-.09.51-.13.76s-.11.6-.16.9l-.06.34c0,.26-.09.53-.13.8l-.18,1.12c-.07.42-.14.84-.2,1.25s-.13.87-.19,1.3-.11.72-.16,1.08c-.13.94-.26,1.89-.38,2.84q-.55-4-.94-8.12h0q-.95-9.91-.95-20.05a210.38,210.38,0,0,1,18.62-86.52,222.43,222.43,0,0,1,18.22-32.77q4.93-7.35,10.44-14.33c39.66-50.31,101.11-85.89,172.07-95.76a289.91,289.91,0,0,1,32.95-2.68q3.63-.09,7.27-.09a290.43,290.43,0,0,1,37.22,2.37l.54.84c.51-.2,1-.38,1.54-.57h0a279.58,279.58,0,0,1,78.73,22.69l3.45,1.6Q985,318.15,987.53,319.39Z" transform="translate(-499.75 -50.89)"/><path class="cls-8" d="M893,346.54c-56.64,27.95-100.36,74.27-121.11,130q-2.15,5.76-4,11.65c-1.68-.49-3.34-1-5-1.52h0q-6.9-2.19-13.62-4.7a12.13,12.13,0,0,1-7.64-13.67c8.75-45.35,32.22-86.2,65.84-118.47A292.55,292.55,0,0,1,893,346.54Z" transform="translate(-499.75 -50.89)"/><path class="cls-6" d="M940.63,541.5c-1.35.22-2.69.42-4,.62C937.93,541.92,939.28,541.72,940.63,541.5Z" transform="translate(-499.75 -50.89)"/><path class="cls-6" d="M947.82,540.24h0l-1,.17Z" transform="translate(-499.75 -50.89)"/><path class="cls-6" d="M900.35,292.66c-.51.19-1,.37-1.54.57l-.54-.84Z" transform="translate(-499.75 -50.89)"/><path class="cls-4" d="M1089.28,532.56h0l-1-1.29Z" transform="translate(-499.75 -50.89)"/><path class="cls-5" d="M1120.51,565.41l-.27-.25.26.05Z" transform="translate(-499.75 -50.89)"/><path class="cls-6" d="M1085.25,405.09l-.77.47-.09-1.77Z" transform="translate(-499.75 -50.89)"/><path class="cls-6" d="M1195,401.77c0,.8,0,1.58-.09,2.36a31.23,31.23,0,0,1-5.72,15.65,19.17,19.17,0,0,0,1-18.23h0c-3.57-7.6-12-12.94-21.77-12.94a25.7,25.7,0,0,0-11,2.43h0c-7.5,3.54-12.61,10.57-12.61,18.68,0,11.65,10.57,21.1,23.6,21.1a25.15,25.15,0,0,0,15.71-5.35,40,40,0,0,1-26.91,10.07c-13.62,0-25.56-6.45-32.2-16.12a31.08,31.08,0,0,1-5.55-17.65,30.42,30.42,0,0,1,1.76-10.23,34.4,34.4,0,0,1,14.35-17.44h0a39.56,39.56,0,0,1,10.51-4.6,41.88,41.88,0,0,1,11.13-1.49,39.69,39.69,0,0,1,28.35,11.46A31.68,31.68,0,0,1,1195,401.77Z" transform="translate(-499.75 -50.89)"/><path class="cls-9" d="M1192.07,409.72a19.26,19.26,0,0,1-2.85,10.06h0a35,35,0,0,1-5,5.68,25.15,25.15,0,0,1-15.71,5.35c-13,0-23.6-9.45-23.6-21.1,0-8.11,5.11-15.14,12.61-18.68h0a25.7,25.7,0,0,1,11-2.43c9.8,0,18.2,5.34,21.77,12.94h0A19.12,19.12,0,0,1,1192.07,409.72Z" transform="translate(-499.75 -50.89)"/><path class="cls-6" d="M1189.21,419.79a21.88,21.88,0,0,1-5,5.68A35,35,0,0,0,1189.21,419.79Z" transform="translate(-499.75 -50.89)"/><path class="cls-6" d="M1210,322.71c-.57-1.09-1.15-2.18-1.73-3.26C1208.83,320.53,1209.41,321.62,1210,322.71Z" transform="translate(-499.75 -50.89)"/><path class="cls-6" d="M1238.38,395.91c-.3-1.14-.6-2.28-.91-3.41C1237.78,393.64,1238.08,394.77,1238.38,395.91Z" transform="translate(-499.75 -50.89)"/><path class="cls-6" d="M1230.93,515.56c-.14.28-.28.55-.43.81l0,0C1230.63,516.09,1230.78,515.83,1230.93,515.56Z" transform="translate(-499.75 -50.89)"/><path class="cls-10" d="M1257,576.7c0-1.65,0-3.3-.15-4.94l-.06-.86a80.24,80.24,0,0,0-3.27-17.55c-.27-.91-.56-1.8-.87-2.69h0q-1.26-3.66-2.85-7.19h0q-1.17-2.62-2.54-5.14c-.63-1.17-1.29-2.33-2-3.47a88.07,88.07,0,0,0-9.29-12.72c-.43-.5-.87-1-1.32-1.48l-.68-.73-.09-.1-.09-.1,0,0,0,0-.08-.08c-.11-.13-.22-.25-.34-.37l-.08-.08-.19-.2-.57-.58c-.18-.19-.38-.38-.56-.58-.47-.47-1-1-1.45-1.42h0l.45-.78h0c.18-.32.36-.64.55-1l.49-.89.1-.17c.12-.21.24-.43.35-.65s.3-.53.44-.8v0l.47-.89.66-1.27.24-.46.12-.23c0-.08.08-.16.11-.24.22-.42.42-.83.63-1.25.86-1.76,1.69-3.54,2.47-5.33.16-.36.32-.72.47-1.08l.24-.57h0c.78-1.41,1.51-2.86,2.21-4.32a80.73,80.73,0,0,0,7.32-25.88,82,82,0,0,0,.46-8.62v-.42h0c0-.63,0-1.27,0-1.9h0c.08-1.17.15-2.34.21-3.52h0q.13-3,.14-6c0-.31,0-.63,0-.95,0-2.2-.08-4.4-.21-6.58a129.66,129.66,0,0,0-7.56-36.71h0a1.74,1.74,0,0,1,0-.22c-.09-.4-.19-.8-.28-1.2s-.19-.79-.28-1.19l-.51-2.1c-.22-.9-.44-1.81-.67-2.71-.11-.4-.21-.8-.31-1.2l-.33-1.26c-.3-1.14-.6-2.28-.91-3.41-.23-.86-.47-1.71-.71-2.57q-.66-2.34-1.35-4.66l0-.06c-.35-1.21-.72-2.41-1.09-3.61-.13-.41-.25-.82-.38-1.22-.2-.63-.39-1.24-.59-1.86-.06-.19-.12-.37-.17-.55-.16-.48-.31-1-.47-1.44s-.31-.95-.47-1.42l-.24-.74c0-.13-.09-.25-.13-.38-.15-.45-.29-.89-.45-1.33l0-.09c-.21-.64-.43-1.27-.65-1.91q-1.21-3.51-2.5-7c-.15-.39-.3-.78-.44-1.18-.78-2.08-1.58-4.16-2.4-6.22l-.66-1.66c-.36-.89-.72-1.77-1.09-2.66s-.64-1.55-1-2.32c-.16-.39-.32-.78-.49-1.16s-.26-.63-.4-.94l-.18-.42-.48-1.13c-.71-1.63-1.42-3.24-2.15-4.86-.26-.55-.51-1.1-.76-1.65q-1.15-2.52-2.35-5l-.69-1.43c-.24-.51-.49-1-.74-1.53l-.54-1.1-.55-1.11c-.18-.36-.36-.73-.55-1.09s-.36-.74-.55-1.1l-.44-.86-.27-.54-1-1.88-.57-1.09c-.57-1.09-1.15-2.18-1.73-3.26l-1.17-2.16q-1.17-2.16-2.39-4.3l-.6-1.07-.61-1.07-.61-1.07-.62-1.06-.62-1.06-.62-1.06-.63-1.06-.63-1.06-.64-1.05c-.21-.35-.42-.71-.64-1.06l-.64-1.05c-.21-.35-.43-.69-.65-1l-.64-1-1.32-2.09c-.31-.5-.63-1-1-1.5l0-.08c-.32-.5-.64-1-1-1.5-.19-.31-.39-.62-.6-.92l-.09-.14c-.68-1.06-1.38-2.11-2.08-3.16-1.52-2.29-3.08-4.57-4.66-6.83a381.43,381.43,0,0,0-38.2-46.35q-5.88-6.12-12.07-12l-.4-.39-1.64-1.55q-8.65-8.11-17.83-15.77a20.59,20.59,0,0,1-7.29-18.13q.36-3.18.55-6.39.25-4,.25-8a129.23,129.23,0,0,0-1.94-22.37,130.83,130.83,0,0,0-10.06-32.19,145.25,145.25,0,0,0-42-52.81,159.69,159.69,0,0,0-21.6-14.45,13.36,13.36,0,0,0-10.86-1A166.62,166.62,0,0,0,985.3,69.87a156.4,156.4,0,0,0-23.58,18.92,146.48,146.48,0,0,0-11.49,12.58,28.36,28.36,0,0,1-18.41,10.16q-4.14.52-8.25,1.12l-3.78,0c-3.9,0-7.78.05-11.66.15A464.63,464.63,0,0,0,796.42,129.1l-1.91.53-1.35.38-1,.3-1.07.3q-4,1.14-7.89,2.35l-1.74.54-.75.23-1.57.5c-2.65.84-5.3,1.71-7.93,2.6l-1.28.44-3.48,1.2-1.84.65-2.9,1-1.06.39-1.83.67-1.53.58-1.42.53-.71.28q-3.48,1.32-6.92,2.7l-1.09.44-1.22.49L744,147l-.82.34-.81.34-1.8.75c-1.2.5-2.39,1-3.58,1.53l-.13.06-1.62.71c-.72.3-1.42.62-2.13.93l-1.34.6-.33.15-1.42.64-2.12,1-1.37.63-2,.91-1.57.75-1.09.52q-3.71,1.77-7.36,3.6L711.44,162l-3.39,1.76q-3.37,1.77-6.72,3.59l-2.25,1.24-.12.07c-.74.4-1.47.81-2.2,1.22l-2.06,1.17-.21.12c-.76.42-1.51.86-2.26,1.29L690,173.78l-.24.14-1.94,1.15-.34.2-1.72,1-.43.26-2.06,1.25a407.59,407.59,0,0,0-93.15,77.67c-.53.59-1,1.19-1.57,1.78l-.28.33-1.12,1.29-.6.7c-.33.37-.65.75-1,1.13-1.12,1.31-2.22,2.62-3.32,4-.26.3-.51.61-.76.92s-.47.56-.7.85-.45.54-.66.81-.53.64-.78,1l-.74.91-.39.48-1,1.2c-.64.8-1.27,1.59-1.89,2.4l-.9,1.14-.37.48L573.2,276l-.77,1c-.89,1.18-1.78,2.35-2.65,3.53l-1.31,1.77-.27.36-1,1.38-.46.64-1.25,1.74-1.33,1.86-1.26,1.81-.69,1c-.37.54-.74,1.07-1.1,1.61s-.77,1.13-1.15,1.69c-.86,1.27-1.7,2.53-2.53,3.8l-.72,1.1-.71,1.08c-.11.17-.22.35-.33.51l-1,1.65-.21.32-1.23,2c-.54.85-1.07,1.71-1.59,2.56-.28.45-.56.9-.83,1.35l-.33.55-.95,1.57-.24.4c-.4.66-.79,1.32-1.18,2s-.73,1.23-1.08,1.85c-.2.33-.39.67-.59,1s-.36.62-.53.93l-.57,1c-.2.34-.39.68-.58,1q-.87,1.53-1.71,3.06c-.28.5-.55,1-.82,1.5l-.76,1.39-.21.39-.73,1.36c-1,1.86-2,3.72-2.92,5.6l-.69,1.34-.28.57q-.32.6-.6,1.2c-.37.74-.74,1.47-1.1,2.21l-.73,1.51c-.62,1.27-1.22,2.54-1.82,3.81-.18.39-.37.78-.55,1.18l-.65,1.4c-.07.16-.15.33-.22.5s-.27.58-.41.88c-.21.48-.43,1-.65,1.44s-.43,1-.65,1.46-.47,1.05-.69,1.57c-.49,1.13-1,2.25-1.46,3.38s-.95,2.25-1.42,3.38l-1,2.37-.42,1.05-1,2.51-.36.91-.46,1.2-.39,1c0,.07,0,.13-.07.2l-.74,1.95-.13.36-.38,1-.84,2.3c-.13.39-.27.77-.41,1.16s-.28.77-.41,1.16-.22.61-.32.92c-.3.85-.6,1.7-.88,2.56-.14.39-.27.77-.4,1.16l-.39,1.17c-.13.38-.25.77-.38,1.16-.26.78-.51,1.56-.76,2.34-.12.39-.25.78-.37,1.17s-.25.78-.37,1.18l-.27.85-.81,2.67c-.12.4-.24.79-.35,1.18-.24.79-.47,1.57-.69,2.36-.12.39-.23.78-.34,1.18q-.51,1.77-1,3.54c-.16.58-.31,1.15-.46,1.72q-.45,1.65-.87,3.3l-.24.93q-.69,2.75-1.35,5.51c-.15.62-.29,1.23-.43,1.85l-.51,2.21-.36,1.68-.42,1.94h0c-.14.63-.27,1.26-.4,1.89,0,0,0,.07,0,.11l-.33,1.62-.48,2.42-.3,1.59c-.08.45-.17.89-.25,1.33l-.3,1.69-.09.51c-.06.32-.11.64-.17,1l-.33,1.94-.33,2c-.1.67-.21,1.34-.31,2s-.2,1.23-.29,1.85-.18,1.21-.26,1.82-.2,1.33-.29,2c-.28,2-.53,4-.77,6-.09.67-.16,1.33-.24,2s-.15,1.34-.22,2c-.12,1-.22,2.07-.32,3.11s-.19,1.89-.27,2.83c0,.36-.07.72-.1,1.08l-.09,1.05-.15,1.85h0c0,.29-.05.58-.06.87,0,.44-.07.88-.11,1.31h0l-.12,1.76c0,.44-.06.87-.08,1.31s-.06.87-.08,1.31a.13.13,0,0,1,0,.06l-.18,3.33v.07l0,.75c0,.51-.05,1-.07,1.52a1.48,1.48,0,0,0,0,.21l-.06,1.38c0,.27,0,.53,0,.79s0,.55,0,.82c0,.72-.05,1.44-.06,2.15,0,.34,0,.67,0,1,0,.57,0,1.13,0,1.7s0,1,0,1.53,0,.76,0,1.14,0,.82,0,1.23c0,.82,0,1.65,0,2.47s0,1.92,0,2.88c0,.67,0,1.34,0,2,0,.28,0,.57,0,.86,0,.66,0,1.33,0,2s0,1.33.05,2,0,1.33.07,2c0,1.33.09,2.65.15,4,0,.5.05,1,.08,1.5l0,.68.09,1.65c0,.59.07,1.18.11,1.77,0,.39.05.77.07,1.16l.09,1.31,0,.39.09,1.27c.05.71.11,1.42.17,2.12s.11,1.32.16,2c.12,1.31.24,2.62.37,3.93.06.65.13,1.3.2,2s.13,1.3.21,1.95h0c.09.82.18,1.64.28,2.46l0,.27h0c0,.37.09.73.13,1.1s.09.71.14,1.07c.09.77.19,1.54.29,2.3l0,.15c.16,1.23.33,2.45.51,3.67.11.81.23,1.63.36,2.44.05.36.11.73.17,1.09s.13.89.2,1.34l.18,1.07c0,.17.05.35.08.52v.05h0c.06.41.13.82.2,1.23l.24,1.43.18,1q.51,3,1.08,5.88l.18.9q.23,1.2.48,2.4l.48,2.36.27,1.26c.17.79.35,1.57.52,2.36l.27,1.18.27,1.21.45,1.93c.15.64.31,1.28.46,1.93a.85.85,0,0,1,0,.17c.15.58.29,1.17.44,1.75l.15.62c.18.73.37,1.46.56,2.19,0,0,0,.06,0,.09l.24.93c.12.47.24.93.37,1.39.21.81.43,1.63.65,2.44,0,0,0,.1.05.16.08.29.15.58.24.87s.13.49.2.74l.09.32c.16.57.32,1.14.49,1.71l.48,1.67.15.52c.16.53.32,1.07.47,1.61s.38,1.25.58,1.89.38,1.25.58,1.88c.38,1.25.78,2.51,1.19,3.76.19.59.39,1.18.58,1.77.09.27.17.53.26.79.27.81.54,1.62.82,2.43.07.21.14.43.22.64.34,1,.68,2,1,3l.29.81c.14.4.28.8.43,1.19l.46,1.29.42,1.13.06.17.63,1.67.66,1.77.07.18.6,1.56c.18.46.36.93.55,1.4h0c0,.1.07.2.11.29l.12.31.73,1.83c.49,1.22,1,2.43,1.49,3.64l.75,1.81h0c.24.56.48,1.13.73,1.69v0q.88,2.08,1.8,4.14c.47,1,.94,2.1,1.42,3.15l.81,1.79c.28.59.55,1.19.83,1.78L533,635c.56,1.18,1.13,2.36,1.7,3.54L536.4,642l.33.65,1.49,2.93.56,1.06c.11.23.23.45.35.68.61,1.16,1.22,2.32,1.84,3.48l.94,1.73.77,1.41.17.31,1,1.72.11.21.83,1.47a.41.41,0,0,1,0,.09c.71,1.26,1.43,2.5,2.15,3.75l.31.52.42.73.09.15,1,1.61c.32.54.64,1.08,1,1.62.73,1.22,1.47,2.43,2.21,3.64l.9,1.44,0,0,.89,1.41.16.25c.63,1,1.27,2,1.91,3s1.47,2.26,2.21,3.39c.06.09.12.17.17.26l1.07,1.6.76,1.13.36.53c.68,1,1.38,2,2.07,3l.78,1.13.51.73,1.08,1.53,1.34,1.87,1,1.33,1.23,1.69,1,1.38c.35.48.71,1,1.07,1.43l.35.48.8,1.06.31.41c.29.39.59.77.88,1.15l.36.48c.27.35.54.71.82,1l1.26,1.64.71.9q2.25,2.86,4.56,5.69l1.26,1.54,1.27,1.53,1.38,1.64.92,1.08c1.08,1.28,2.18,2.55,3.28,3.81l1.21,1.37.51.58.46.52.42.47.74.83,1.32,1.47.16.17,1.43,1.56.9,1,.73.8.9,1,.66.69c.26.3.54.59.81.87l.06.07c.91,1,1.83,1.93,2.76,2.89l1.24,1.28,1.36,1.39,1,1,1.33,1.34.83.82.82.82,1,.93.64.63L611,743c.67.65,1.35,1.31,2,2l.93.89c.32.31.64.6,1,.9l1,.92.15.13c.45.44.92.87,1.38,1.3l2.19,2,1.13,1,.63.57,1.43,1.28a2.5,2.5,0,0,0,.24.22l.18.16,1.17,1c.67.6,1.34,1.19,2,1.77l1.1,1,.88.76,1.07.92c1,.91,2.1,1.8,3.17,2.69l.86.72,1.23,1,.27.22,1.68,1.38h0l0,0c1.26,1,2.54,2.06,3.82,3.08l1.23,1,.56.44,1.11.87,1.75,1.37q2.76,2.13,5.57,4.23,6.71,5,13.65,9.77,2.24,1.53,4.48,3l.57.38q9.21,6.12,18.78,11.79l.25.15,1.84,1.08,3.87,2.24,2.29,1.3h0c.56,2,1.17,4,1.8,5.93q1.66,5.24,3.61,10.37,3.74,9.9,8.43,19.38,2.17,4.41,4.55,8.72,1.32,2.4,2.7,4.76c1.44,2.48,2.94,4.94,4.48,7.36q4.46,7,9.43,13.7t10.29,12.89q7.88,9.18,16.72,17.62c1.18,1.13,2.36,2.23,3.57,3.34h0l.33.3,1.24,1.13a252.67,252.67,0,0,0,21.46,17.3c.24.18.48.36.73.53,2.18,1.56,4.38,3.09,6.62,4.59l.18.12,1.15.76q2.16,1.42,4.34,2.81,5.79,3.66,11.79,7h0q6.74,3.78,13.73,7.21h0q4.77,2.33,9.67,4.49,4.66,2.05,9.42,3.94h0l.33.13h0q7.84,3.1,16,5.75,2.43.79,4.89,1.55,7.29,2.22,14.75,4.07,5.71,1.41,11.53,2.59,8.81,1.79,17.83,3,5.93.81,11.94,1.39l2,.18,2.93.25q11.36.88,23,.89c2,0,3.92,0,5.87,0,1.66,0,3.32-.08,5-.15l2.25-.09q6.62-.29,13.14-.88,11.45-1,22.58-2.92a282.35,282.35,0,0,0,39.84-9.8c0-1.67-.11-3.34-.2-5a206,206,0,0,0-2.13-20.9q-.92-6-2.18-12-1.57-7.39-3.67-14.63A217.49,217.49,0,0,0,1003.46,859c-.47-.74-.93-1.48-1.41-2.21q6.86-1.21,13.62-2.63h0a281,281,0,0,0,56.93-15h0q8.46-3.23,16.6-7h0a261.13,261.13,0,0,0,66.55-43.65,289.24,289.24,0,0,0-416.94-43q-3.66,3.12-7.2,6.36-8.77,8-16.88,16.74l-2.2-1.36c-1.32-.83-2.65-1.67-4-2.53q-8.49-5.52-16.44-11.64l-.06,0a0,0,0,0,1,0,0c-1.28-1-2.54-2-3.78-3l-.75-.6h0q-7.32-5.9-14.12-12.28-4.71-4.4-9.15-9-3.09-3.21-6-6.53-6.54-7.3-12.4-15.1-4.22-5.59-8.07-11.41h0c-1.45-2.18-2.85-4.38-4.22-6.61a220.56,220.56,0,0,1-15.11-29.31h0c-.15-.34-.29-.68-.43-1h0c-1-2.49-2-5-3-7.55a213,213,0,0,1-6.93-22.15q-1-3.81-1.79-7.66c-.27-1.27-.53-2.55-.78-3.83-.06-.3-.12-.61-.17-.91s-.08-.39-.11-.59c-.18-1-.35-1.89-.51-2.83s-.37-2.16-.53-3.24A209.78,209.78,0,0,1,601.68,577q0-4.9.22-9.77.4-8.51,1.47-16.86-.55-4-.94-8.12h0q-.95-9.91-.95-20.05a210.38,210.38,0,0,1,18.62-86.52,222.43,222.43,0,0,1,18.22-32.77q4.93-7.35,10.44-14.33c39.66-50.31,101.11-85.89,172.07-95.76a289.91,289.91,0,0,1,32.95-2.68q3.63-.09,7.27-.09a292.25,292.25,0,0,1,37.22,2.37l2.08.27h0a279.58,279.58,0,0,1,78.73,22.69l3.45,1.6.05,0a1.6,1.6,0,0,1-.5,3c-2.19.28-4.38.57-6.55.9a281.44,281.44,0,0,0-54.13,13.55A272.82,272.82,0,0,0,893,346.54q-.66.31-1.32.66c-.27.13-.54.26-.8.4-.65.32-1.3.65-1.94,1-.41.2-.81.41-1.21.62-1.31.68-2.61,1.37-3.9,2.08l-1.23.67-2.16,1.2-1.35.76c-1,.57-2,1.15-3,1.74l-1.5.88-1.49.9-1.48.9-1.48.91-1.46.92-2.46,1.57-1.75,1.15a.57.57,0,0,0-.13.08l-1.76,1.17-2.4,1.63-1.19.82-1,.66-.93.66-1.66,1.19-.35.25-1.75,1.28-1.76,1.31-.25.19-1.69,1.27-2.27,1.76c-.76.59-1.51,1.19-2.26,1.79l-2.23,1.81c-.37.3-.74.6-1.1.91l-2.2,1.84-1.35,1.15,0,0-1.16,1q-2.62,2.3-5.19,4.66l-.57.53-1,.95-1.29,1.22-1.53,1.47-.85.83-.32.31-1.12,1.1L823.87,396l-1.24,1.26-.93,1-.55.57-.57.6c-.22.22-.44.45-.65.68s-.65.69-1,1l-1,1c-.64.69-1.28,1.38-1.91,2.08l-.94,1.05L814,406.64l-.57.65c-.35.39-.69.79-1,1.18-.61.72-1.22,1.43-1.82,2.15s-1.21,1.44-1.8,2.17-1.19,1.45-1.77,2.18l-.87,1.1c-.88,1.1-1.74,2.21-2.59,3.33l-1.68,2.23-.83,1.13-1.3,1.8c-.39.53-.77,1.07-1.16,1.61l-1.6,2.3-.8,1.17c-.14.21-.28.41-.41.62l-.66,1c-.22.32-.43.65-.64,1l-.6.9c-.76,1.17-1.51,2.35-2.25,3.53l-.74,1.18-.73,1.19q-1.17,1.94-2.31,3.88c-.14.24-.28.48-.41.72s-.43.74-.64,1.11-.57,1-.86,1.52l-.84,1.52c-.24.44-.49.88-.72,1.33-.08.13-.15.27-.22.4l-.66,1.24-.07.13c-.27.5-.53,1-.79,1.5l-.83,1.63c-.08.14-.14.28-.22.42l-.84,1.68c-.2.42-.41.83-.61,1.25-.41.83-.81,1.67-1.2,2.51-.23.48-.45,1-.67,1.44-.15.31-.3.63-.44.95s-.43.93-.64,1.4c-.32.72-.64,1.44-.95,2.16h0l-.63,1.46-.63,1.48c-.22.52-.43,1-.64,1.57-.09.21-.18.42-.26.64-.23.55-.45,1.11-.67,1.66l-.76,1.95-.74,1.95q-2.15,5.76-4,11.65-1.73,5.58-3.13,11.26A16.92,16.92,0,0,0,774,518.82a277.66,277.66,0,0,0,61.41,20.38l1.19.24,1.19.24,2.37.46,1.13.21q3.31.61,6.64,1.15l1.81.29,3.73.55,1.52.21,1.66.22,1.54.19,1.54.19h0l1.06.12c.35.05.71.08,1.06.12l1.06.12,1.07.11.92.1,1.21.12.76.07,1.81.16,1.71.15h.07l1.2.1,1.33.1,1.27.09.76,0,1.29.08,2.95.17,1.21.05h0l.67,0,.44,0L883,545l1.88.07,1.79.05h.09l1.49,0c.8,0,1.6,0,2.41,0l1.48,0h2.19l2.51,0h2.11l1.41,0,1.13,0,.77,0,1,0,1.38,0,.69,0,1.1,0,2.9-.13,2.12-.12,2-.12.41,0,1.48-.1,1.25-.09.29,0,1.61-.13,1.59-.13,1.36-.12.83-.08h.13l2.74-.28c.91-.1,1.81-.19,2.7-.3l1.35-.16.75-.09.89-.11,1.06-.13,1-.14.78-.11,1.22-.17c.57-.07,1.13-.16,1.7-.24l4-.62h.07l1.87-.31.39-.07,1.56-.27.62-.11,1.4-.25.32-.06,1-.18,1-.18,1.14-.22,1.07-.21.14,0,1.07-.21,1.13-.24,1.51-.32c.65-.14,1.29-.27,1.93-.42l.22,0,1.85-.41h0l1.81-.41.18,0,.22-.05.91-.22,1.37-.33,1.38-.35c1.19-.29,2.37-.6,3.55-.91l.92-.25,1-.28,1.65-.46.15,0,1.15-.33.86-.24,1.32-.39c1.11-.32,2.22-.66,3.33-1,.7-.21,1.41-.43,2.1-.66l1.25-.39.17-.06,1.11-.36.88-.29,1.92-.64,2-.67,2-.71,1.23-.44.07,0,.72-.26c.52-.18,1.05-.38,1.57-.58l.06,0,1.53-.57,2.21-.85,1.14-.44,1.43-.57,1.13-.46,1.37-.56c1.38-.56,2.75-1.14,4.12-1.73l1.6-.69.66-.29,1.55-.69,1.71-.78.37-.17c1.2-.54,2.39-1.1,3.57-1.67l1.5-.72c.56-.26,1.12-.54,1.67-.81l1.06-.52,1.27-.65,1.06-.53.23-.12,1.08-.56.29-.14,2-1,.39-.21.94-.51.37-.19,2.13-1.16h0l1.12-.62,1.25-.7.86-.48.49-.29c.34-.19.68-.38,1-.58.79-.45,1.57-.91,2.35-1.37l1.16-.69,2.32-1.4,1.15-.71c.77-.47,1.53-.95,2.28-1.43l0,0c.38-.23.75-.47,1.12-.71l1.47-.94,1.45-1,.93-.61c.71-.47,1.4-.94,2.1-1.42l.74-.5,1.29-.89.14-.1,1.59-1.11,1.52-1.08.26-.19.06,0a6.54,6.54,0,0,1,9.66,2.35,225.57,225.57,0,0,0,14.37,24.51c1.1,1.61,2.21,3.22,3.34,4.81l.71,1,1.24,1.71c.32.43.63.86.95,1.28s.66.89,1,1.33l.18.25,1,1.29c.25.34.51.67.77,1l.78,1,.77,1c.35.45.71.91,1.08,1.36.17.21.34.43.52.64.56.7,1.13,1.39,1.71,2.08l.58.69c1,1.26,2.13,2.52,3.21,3.75.35.41.7.81,1.06,1.21h0l1.14,1.28c.39.43.77.86,1.16,1.28l1.1,1.2.23.25,1,1c.8.86,1.62,1.72,2.44,2.56l1.09,1.13c.09.08.16.17.24.25l.83.83,1.54,1.55,1,1c1,.94,1.92,1.87,2.9,2.79l.87.83,1.47,1.37,1.19,1.09,1.49,1.34,1.15,1,1.48,1.31.77.66c.27.24.54.48.82.71l.72.62.93.79.57.48.91.76.9.74,2.91,2.36,1.28,1,.29.23,1.17.91.42.33,1,.78.91.69.73.55c1,.79,2.12,1.58,3.19,2.36l1.3.94.25.18,1.21.86.49.35,1.3.91,0,0,.12.09,1.1.76,1.41,1,.81.55,1.49,1A270.64,270.64,0,0,0,1219.67,621l2.51.76,1.37.39,2.66.76h0l.08,0h0a11.65,11.65,0,0,0,8-1,6.23,6.23,0,0,0,3-2.21h0a6.22,6.22,0,0,0,1.2-3.67,6.33,6.33,0,0,0-.43-2.28,2.16,2.16,0,0,0-1.15-1.19c-1.67-.73-3.32-1.48-5-2.24l-.13-.06-.78-.36-.14-.07-.83-.38q-2.28-1.08-4.53-2.19t-4.35-2.19l-1.45-.75a273.38,273.38,0,0,1-47.87-31.71q-4.51-3.74-8.84-7.64-6.9-6.25-13.31-12.94l-1.31-1.38q-3.52-3.73-6.89-7.61c-3-3.4-7.3-9.21-8.56-10.4v0a2,2,0,0,1,3.23-1.34c4,3.3,8.16,6.58,12.3,9.71,1.63,1.24,3.28,2.46,4.93,3.68q3.74,2.73,7.52,5.39,8.07,5.65,16.46,10.95,3.35,2.13,6.74,4.18a432.47,432.47,0,0,0,43.19,23h0q2.2,1,4.42,2l1.87.84,2.11.92.82.29.57.28a15.44,15.44,0,0,0,11.46.52,10.72,10.72,0,0,0,4.37-2.11,10.82,10.82,0,0,0,3.59-5.3,11,11,0,0,0,.45-3.11,12.66,12.66,0,0,0-.08-1.39C1257,579.57,1257,578.14,1257,576.7Zm-62.06-172.57a31.16,31.16,0,0,1-5.72,15.64v0a21.88,21.88,0,0,1-5,5.68,40,40,0,0,1-26.91,10.07c-13.62,0-25.56-6.45-32.2-16.12a31.07,31.07,0,0,1-5.55-17.64,30.44,30.44,0,0,1,1.76-10.24,34.4,34.4,0,0,1,14.35-17.44h0a39.56,39.56,0,0,1,10.51-4.6,41.88,41.88,0,0,1,11.13-1.49,39.69,39.69,0,0,1,28.35,11.46,31.69,31.69,0,0,1,9.41,22.31C1195,402.57,1195,403.35,1194.94,404.13Zm-74.7,161,.26,0c0,.07,0,.14,0,.21Z" transform="translate(-499.75 -50.89)"/><path class="cls-6" d="M1235.71,591.82a22,22,0,0,1-2.11-.92Z" transform="translate(-499.75 -50.89)"/></svg>