<svg id="Layer_1" data-name="Layer 1" xmlns="http://www.w3.org/2000/svg" viewBox="0 0 1898.59 664.79"><defs><style>.cls-1{fill:none;}.cls-2{fill:#06aa51;}.cls-3{fill:#9d9fa0;}</style></defs><title>verde urbano</title><path class="cls-1" d="M1405.43,506.41c-.19-.25-.37-.49-.55-.75q.51-2.55,1.06-5.08C1405.69,502.5,1405.52,504.45,1405.43,506.41Z" transform="translate(-9 -139.62)"/><path class="cls-2" d="M252.91,300.41,155.23,534H106.49L9,300.41H56L114.9,446.75q2.67,6.39,5.83,15.5t5.92,18.37q2.78,9.27,4.3,16.46,1.53-7.18,4.3-16.46t5.83-18.37q3.06-9.11,5.74-15.66l58.87-146.18Z" transform="translate(-9 -139.62)"/><path class="cls-2" d="M369.32,353.77q28.28,0,48.55,9.75T449,391.16Q459.92,409,459.92,434V454.1H318.66q.76,25.72,16.54,39.63t44.25,13.9a184.34,184.34,0,0,0,36.41-3.28,222,222,0,0,0,33.36-9.67V525.2a167.41,167.41,0,0,1-32.31,9.11q-16.44,2.87-39.37,2.87-31.17,0-54.86-10.06t-36.9-30.2q-13.18-20.13-13.18-50.17,0-29.72,12-50.48a79,79,0,0,1,33.83-31.64Q340.27,353.77,369.32,353.77Zm0,28.28q-21.22,0-34.31,11.5t-15.39,33.71h96.15a53.6,53.6,0,0,0-5.26-23.4,37.4,37.4,0,0,0-15.2-16Q385.19,382,369.32,382.05Z" transform="translate(-9 -139.62)"/><path class="cls-2" d="M617.81,353.77q5.36,0,11.66.48t10.9,1.28l-4.21,35.31a72.71,72.71,0,0,0-9.84-1.52q-5.84-.56-10.42-.56A77.76,77.76,0,0,0,593,392.11a58.82,58.82,0,0,0-19.3,10,46.35,46.35,0,0,0-13.19,16.53q-4.79,9.92-4.78,23V534H510.38V357.13h35.37l6.11,31.15H554A81.88,81.88,0,0,1,569.64,371a76.56,76.56,0,0,1,21.51-12.54A73.1,73.1,0,0,1,617.81,353.77Z" transform="translate(-9 -139.62)"/><path class="cls-2" d="M750.47,537.18q-37.66,0-60.5-23.08T667.13,446q0-45.54,23.22-68.86t61.27-23.33a98,98,0,0,1,27.9,3.59A73.33,73.33,0,0,1,800.36,367a67.39,67.39,0,0,1,14.72,13.58h2.1q-1-5-2.1-14.3A141.9,141.9,0,0,1,813.93,349V285.39H859V534H823.87l-8-24h-1.91a66.87,66.87,0,0,1-14.43,13.74,69.34,69.34,0,0,1-20.74,9.83Q766.72,537.17,750.47,537.18Zm12.81-30.51q28.66,0,40.62-13.9T816,451.07v-5q0-29.72-11.37-45.53t-41.77-15.82q-24.27,0-37,16.3t-12.72,45.53q0,29.25,12.72,44.66T763.28,506.67Z" transform="translate(-9 -139.62)"/><path class="cls-2" d="M1007.56,353.77q28.29,0,48.56,9.75t31.15,27.64q10.9,17.88,10.9,42.81V454.1H956.91q.76,25.72,16.54,39.63t44.25,13.9a184.34,184.34,0,0,0,36.41-3.28,221.6,221.6,0,0,0,33.35-9.67V525.2a167.12,167.12,0,0,1-32.3,9.11q-16.44,2.87-39.37,2.87-31.17,0-54.87-10.06T924,496.92q-13.18-20.13-13.19-50.17,0-29.72,12-50.48a78.91,78.91,0,0,1,33.83-31.64Q978.52,353.77,1007.56,353.77Zm0,28.28q-21.21,0-34.31,11.5t-15.38,33.71H1054a53.6,53.6,0,0,0-5.25-23.4,37.45,37.45,0,0,0-15.2-16Q1023.42,382,1007.56,382.05Z" transform="translate(-9 -139.62)"/><path class="cls-3" d="M802.75,626.11v175.1h-26l-4.59-24.6h-1.72a55.61,55.61,0,0,1-16.82,15.33,81.64,81.64,0,0,1-23.22,9.35A116.42,116.42,0,0,1,703,804.41q-24.86,0-41.67-6.71T636,776.93q-8.51-14.07-8.51-36.11V626.11h32.12V738.9q0,21.9,11.85,32.67t36.13,10.79q23.31,0,37.17-7.35a43,43,0,0,0,20-21.65q6.12-14.29,6.12-35.07V626.11Z" transform="translate(-9 -139.62)"/><path class="cls-3" d="M965,622.91q6.32,0,13.19.56T990.46,625l-4,24.6A105.92,105.92,0,0,0,975,647.83q-6.3-.63-11.85-.63a66.73,66.73,0,0,0-23.8,4.23,58.58,58.58,0,0,0-19.59,12.14,56.32,56.32,0,0,0-13.19,19,62,62,0,0,0-4.78,24.69v93.94H869.84V626.11h26.38l3.44,32.27H901a90.73,90.73,0,0,1,15.67-17.81A72.06,72.06,0,0,1,938,627.7,73.13,73.13,0,0,1,965,622.91Z" transform="translate(-9 -139.62)"/><path class="cls-3" d="M1061.56,552.61v62.15q0,10.71-.66,20.77t-1.06,15.66h1.72q8.61-11.82,24.85-20t41.48-8.15q39.38,0,62.8,22.77t23.41,67.66q0,29.57-10.7,49.85A71.83,71.83,0,0,1,1173.2,794q-19.5,10.4-46.07,10.39-24.86,0-40.81-7.75t-24.56-18.93h-2.49l-6.5,23.48h-22.94V552.61Zm61.17,92.67q-22.74,0-36.12,7.43a42.23,42.23,0,0,0-19.22,22.37q-5.82,14.94-5.83,37.78v1.44q0,33.08,13.19,50.56t48,17.5q29.25,0,43.87-17.9t14.62-51.12q0-33.87-14.43-51T1122.73,645.28Z" transform="translate(-9 -139.62)"/><path class="cls-3" d="M1347.71,623.23q37.47,0,55.63,14.06t18.16,44.89v119h-23.13l-6.12-25.88h-1.53a104.94,104.94,0,0,1-18.35,16.06,71.15,71.15,0,0,1-22.07,9.74q-12.52,3.27-30.68,3.28-19.12,0-33.93-5.6t-23.32-16.93q-8.5-11.34-8.51-28.76,0-26.21,24.85-40.26t75.7-15.34l36.12-1.28v-10.7q0-22.68-11.66-31.79T1346,644.64a120.73,120.73,0,0,0-31.35,4,241.75,241.75,0,0,0-28.29,9.43l-9.75-20.13a197,197,0,0,1,32.49-10.39A168.65,168.65,0,0,1,1347.71,623.23Zm42.44,91.71-31.92,1.12q-39.2,1.28-55.24,10.7t-16.06,26.68q0,15,10.9,22.21t28.86,7.19q27.9,0,45.68-12.94t17.78-38.83Z" transform="translate(-9 -139.62)"/><path class="cls-3" d="M1586.08,622.91q37.28,0,56.39,15.26t19.11,49V801.21h-31.35V688.9q0-21.9-11.94-32.76t-36.61-10.86q-34.79,0-48.93,16.45T1518.6,709.5v91.71h-31.73V626.11h25.62l4.77,25.24H1519a57.89,57.89,0,0,1,17-15.58,84,84,0,0,1,23.13-9.58A108,108,0,0,1,1586.08,622.91Z" transform="translate(-9 -139.62)"/><path class="cls-3" d="M1907.59,713.34q0,21.57-6.69,38.5a76.65,76.65,0,0,1-19.3,28.6,84.81,84.81,0,0,1-30.49,17.81q-17.88,6.15-40.43,6.16a115.44,115.44,0,0,1-38.52-6.16,86.25,86.25,0,0,1-30.2-17.81,79.09,79.09,0,0,1-19.69-28.6q-7-16.94-7-38.5,0-28.76,11.66-49a76.19,76.19,0,0,1,33.35-30.83Q1782,622.91,1812,622.91q28.67,0,50.17,10.71a78.71,78.71,0,0,1,33.46,30.91Q1907.59,684.75,1907.59,713.34Zm-159.42,0q0,21.09,6.69,36.59a50.77,50.77,0,0,0,20.65,24q14,8.48,35.93,8.47,21.8,0,35.84-8.47a50.63,50.63,0,0,0,20.74-24q6.69-15.49,6.69-36.59,0-20.93-6.69-36.19a50.12,50.12,0,0,0-20.64-23.56q-14-8.31-36.13-8.31-32.68,0-47.88,18.05T1748.17,713.34Z" transform="translate(-9 -139.62)"/><path class="cls-2" d="M1270.67,143.17a2.32,2.32,0,0,0-2-3.47,240.44,240.44,0,0,0-61.06,6.21c-37,8.52-82,28.79-118.4,72-31.47,37.2-53.48,62.48-63,84.19-9.69,21.54-6.88,39.52,7.45,58.51,3.28,4.39,12,6,17.11,3,14.07-8.34,33.64-21.39,55.08-45.93,25.48-30.61,40.51-52.76,50.88-65.65,2.83-3.69,5.3-6.65,7.37-9a2.32,2.32,0,0,1,3.88,2.42c-1.34,3.25-3,7.33-5.1,12.33-7.07,16-18.18,41.78-42.41,73.55-21,26-41.59,38.59-57.67,45.17-5.57,2.27-6.85,7.42-2.23,11.06,43.93,34.47,115,53.24,152.81-53.72,10.87-28.43,16.6-57.94,22.21-83.31,5.4-25.55,10.68-47,16.06-63.46C1259.61,163.12,1267.24,149.16,1270.67,143.17Z" transform="translate(-9 -139.62)"/><path class="cls-2" d="M1288.61,405.59a2.15,2.15,0,0,0,.75-3.62,148.32,148.32,0,0,0-29.82-21.4,134.3,134.3,0,0,0-84.21-15.47c-29.81,4.22-50.36,6.83-63.67,12.92s-19.42,15.41-20.62,30.06c-.29,3.37,3,7.7,6.67,8.4a134.19,134.19,0,0,0,44.3,1.45c24.33-3.64,40.37-7.67,50.46-9.36l2.32-.42a2.16,2.16,0,0,1,1.31,4.08l-3.16,1.52c-9.83,4.46-25.56,11.8-49.8,16.49-20.36,3.36-35.05.7-45.17-2.87-3.5-1.25-6.21.6-5.57,4.18,6.09,34,31.14,71.83,92.57,38,16.7-8.64,31.47-19.9,44.49-29.29,13-9.57,24.24-17.27,33.5-22.67A148.21,148.21,0,0,1,1288.61,405.59Z" transform="translate(-9 -139.62)"/><path class="cls-2" d="M1313.75,344.62a1.31,1.31,0,0,0,.46-2.2,80.14,80.14,0,0,0-15.9-11.38,72.55,72.55,0,0,0-45.43-8.35c-16.08,2.28-27.17,3.69-34.35,7s-10.48,8.31-11.12,16.21a4.83,4.83,0,0,0,3.6,4.53,72.3,72.3,0,0,0,23.89.79c13.13-2,21.78-4.14,27.22-5.05l.16,0a1.32,1.32,0,0,1,.81,2.48l-.71.34a111,111,0,0,1-26.87,8.9c-11,1.81-18.9.37-24.36-1.55-1.89-.67-3.35.32-3,2.25,3.29,18.32,16.8,38.75,49.94,20.52,9-4.66,17-10.73,24-15.8A212.94,212.94,0,0,1,1300.15,351,80.34,80.34,0,0,1,1313.75,344.62Z" transform="translate(-9 -139.62)"/><text x="-9" y="-139.62"/><path class="cls-2" d="M1299.07,274a1.31,1.31,0,0,0-.39-2.22,80,80,0,0,0-19-4.73,72.52,72.52,0,0,0-45.31,9c-14.11,8-23.9,13.43-29.37,19.13s-6.68,11.58-4.38,19.16a4.83,4.83,0,0,0,5,2.89,72.26,72.26,0,0,0,22.5-8.06c11.49-6.66,18.73-11.87,23.45-14.71l.14-.09a1.32,1.32,0,0,1,1.67,2l-.54.58a110.93,110.93,0,0,1-21.7,18.16c-9.55,5.73-17.44,7.31-23.23,7.52-2,.08-3,1.54-2,3.21,9.8,15.82,29.88,29.84,54,.7,6.66-7.65,11.84-16.23,16.5-23.52a214.15,214.15,0,0,1,12.3-18A81,81,0,0,1,1299.07,274Z" transform="translate(-9 -139.62)"/><path class="cls-2" d="M1320.39,311a.52.52,0,0,0,.18-.87,31.77,31.77,0,0,0-6.32-4.53,28.83,28.83,0,0,0-18.07-3.32c-6.4.91-10.81,1.47-13.67,2.78s-4.16,3.3-4.42,6.45a1.93,1.93,0,0,0,1.43,1.8,29,29,0,0,0,9.51.31c5.22-.78,8.66-1.65,10.82-2h.07a.52.52,0,0,1,.32,1l-.29.14a43.9,43.9,0,0,1-10.68,3.54,19.12,19.12,0,0,1-9.69-.62c-.76-.26-1.34.13-1.2.9,1.31,7.29,6.68,15.41,19.86,8.16a76,76,0,0,0,9.55-6.28,83.55,83.55,0,0,1,7.19-4.86A32.26,32.26,0,0,1,1320.39,311Z" transform="translate(-9 -139.62)"/></svg>